<svg width="183" height="39" viewBox="0 0 183 39" fill="none" xmlns="http://www.w3.org/2000/svg">
<path d="M13.65 38.3C11.4833 38.3 9.56667 38.05 7.9 37.55C6.26667 37.05 4.86667 36.1333 3.7 34.8C2.56667 33.4667 1.7 31.5667 1.1 29.1C0.533333 26.6 0.25 23.3667 0.25 19.4C0.25 15.5667 0.55 12.4333 1.15 10C1.78333 7.53333 2.68333 5.63333 3.85 4.3C5.01667 2.93333 6.43333 1.98333 8.1 1.45C9.76667 0.916665 11.65 0.649998 13.75 0.649998C15.4167 0.649998 16.9667 0.749998 18.4 0.949997C19.8667 1.11666 21.1833 1.33333 22.35 1.6C23.5167 1.83333 24.5 2.1 25.3 2.4V8.15C24.7 8.01667 23.8833 7.88333 22.85 7.75C21.85 7.61667 20.7 7.51667 19.4 7.45C18.1 7.35 16.7333 7.3 15.3 7.3C13.9 7.3 12.7 7.46667 11.7 7.8C10.7333 8.1 9.95 8.68333 9.35 9.55C8.78333 10.3833 8.35 11.6 8.05 13.2C7.78333 14.8 7.65 16.8833 7.65 19.45C7.65 21.9167 7.76667 23.95 8 25.55C8.26667 27.15 8.68333 28.4 9.25 29.3C9.81667 30.1667 10.5833 30.7833 11.55 31.15C12.55 31.4833 13.8 31.65 15.3 31.65C17.8333 31.65 19.8833 31.6 21.45 31.5C23.05 31.4 24.3333 31.2833 25.3 31.15V36.85C24.4 37.15 23.3667 37.4167 22.2 37.65C21.0333 37.85 19.75 38 18.35 38.1C16.95 38.2333 15.3833 38.3 13.65 38.3ZM44.4469 38.25C42.4135 38.25 40.5135 38.0833 38.7469 37.75C36.9802 37.3833 35.4302 36.7667 34.0969 35.9C32.7969 35 31.7802 33.7667 31.0469 32.2C30.3469 30.6 29.9969 28.5667 29.9969 26.1V1H37.3969V26.05C37.3969 27.4167 37.6635 28.5 38.1969 29.3C38.7635 30.1 39.5635 30.6833 40.5969 31.05C41.6635 31.4167 42.9469 31.6 44.4469 31.6C45.9135 31.6 47.1635 31.4167 48.1969 31.05C49.2635 30.6833 50.0635 30.1 50.5969 29.3C51.1635 28.5 51.4469 27.4167 51.4469 26.05V1H58.8969V26.1C58.8969 28.5667 58.5302 30.6 57.7969 32.2C57.0635 33.7667 56.0469 35 54.7469 35.9C53.4469 36.7667 51.9135 37.3833 50.1469 37.75C48.4135 38.0833 46.5135 38.25 44.4469 38.25ZM75.9242 38.3C74.9576 38.3 73.9576 38.2667 72.9242 38.2C71.9242 38.1667 70.8909 38.1 69.8242 38C68.7909 37.8667 67.8076 37.7333 66.8742 37.6C65.9409 37.4333 65.0909 37.25 64.3242 37.05V31.2C65.3242 31.3 66.4576 31.3833 67.7242 31.45C68.9909 31.5167 70.3076 31.5667 71.6742 31.6C73.0409 31.6333 74.3409 31.65 75.5742 31.65C76.8409 31.65 77.9242 31.55 78.8242 31.35C79.7576 31.1167 80.4742 30.7333 80.9742 30.2C81.4742 29.6333 81.7242 28.8667 81.7242 27.9V26.55C81.7242 25.45 81.3909 24.6167 80.7242 24.05C80.0909 23.45 79.1742 23.15 77.9742 23.15H74.8242C71.2909 23.15 68.5742 22.3833 66.6742 20.85C64.8076 19.2833 63.8742 16.6333 63.8742 12.9V11.1C63.8742 7.5 64.9076 4.86667 66.9742 3.2C69.0409 1.53333 71.9909 0.699997 75.8242 0.699997C77.1909 0.699997 78.5409 0.766664 79.8742 0.899998C81.2409 1.03333 82.5409 1.2 83.7742 1.4C85.0409 1.56666 86.1242 1.75 87.0242 1.95V7.8C85.4909 7.7 83.7742 7.6 81.8742 7.5C80.0076 7.4 78.2742 7.35 76.6742 7.35C75.5409 7.35 74.5242 7.46667 73.6242 7.7C72.7576 7.9 72.0909 8.3 71.6242 8.9C71.1576 9.5 70.9242 10.35 70.9242 11.45V12.45C70.9242 13.75 71.2909 14.6833 72.0242 15.25C72.7576 15.8167 73.8409 16.1 75.2742 16.1H78.9242C81.1576 16.1 82.9909 16.5167 84.4242 17.35C85.8909 18.15 86.9742 19.2667 87.6742 20.7C88.4076 22.1333 88.7742 23.7667 88.7742 25.6V27.7C88.7742 30.6 88.2242 32.8167 87.1242 34.35C86.0576 35.8833 84.5576 36.9333 82.6242 37.5C80.7242 38.0333 78.4909 38.3 75.9242 38.3ZM101.968 38V7.65H91.8176V1H119.568V7.65H109.368V38H101.968ZM137.619 38.3C135.086 38.3 132.869 38.0667 130.969 37.6C129.069 37.1 127.469 36.2 126.169 34.9C124.902 33.5667 123.952 31.6667 123.319 29.2C122.686 26.7333 122.369 23.5167 122.369 19.55C122.369 15.5833 122.686 12.3667 123.319 9.9C123.986 7.4 124.952 5.48333 126.219 4.15C127.486 2.81667 129.069 1.9 130.969 1.4C132.869 0.899998 135.086 0.649998 137.619 0.649998C140.152 0.649998 142.369 0.899998 144.269 1.4C146.169 1.9 147.752 2.81667 149.019 4.15C150.286 5.48333 151.236 7.4 151.869 9.9C152.502 12.3667 152.819 15.5833 152.819 19.55C152.819 23.5167 152.502 26.7333 151.869 29.2C151.236 31.6667 150.286 33.5667 149.019 34.9C147.752 36.2 146.169 37.1 144.269 37.6C142.369 38.0667 140.152 38.3 137.619 38.3ZM137.619 31.65C139.119 31.65 140.369 31.4833 141.369 31.15C142.369 30.8167 143.152 30.2333 143.719 29.4C144.319 28.5333 144.752 27.3167 145.019 25.75C145.286 24.15 145.419 22.0833 145.419 19.55C145.419 16.8833 145.286 14.75 145.019 13.15C144.752 11.55 144.319 10.3333 143.719 9.5C143.152 8.63333 142.369 8.05 141.369 7.75C140.369 7.45 139.119 7.3 137.619 7.3C136.186 7.3 134.969 7.45 133.969 7.75C132.969 8.05 132.152 8.63333 131.519 9.5C130.919 10.3333 130.469 11.55 130.169 13.15C129.902 14.75 129.769 16.8833 129.769 19.55C129.769 22.0833 129.886 24.15 130.119 25.75C130.386 27.3167 130.819 28.5333 131.419 29.4C132.019 30.2333 132.819 30.8167 133.819 31.15C134.852 31.4833 136.119 31.65 137.619 31.65ZM169.43 38.3C168.463 38.3 167.463 38.2667 166.43 38.2C165.43 38.1667 164.397 38.1 163.33 38C162.297 37.8667 161.313 37.7333 160.38 37.6C159.447 37.4333 158.597 37.25 157.83 37.05V31.2C158.83 31.3 159.963 31.3833 161.23 31.45C162.497 31.5167 163.813 31.5667 165.18 31.6C166.547 31.6333 167.847 31.65 169.08 31.65C170.347 31.65 171.43 31.55 172.33 31.35C173.263 31.1167 173.98 30.7333 174.48 30.2C174.98 29.6333 175.23 28.8667 175.23 27.9V26.55C175.23 25.45 174.897 24.6167 174.23 24.05C173.597 23.45 172.68 23.15 171.48 23.15H168.33C164.797 23.15 162.08 22.3833 160.18 20.85C158.313 19.2833 157.38 16.6333 157.38 12.9V11.1C157.38 7.5 158.413 4.86667 160.48 3.2C162.547 1.53333 165.497 0.699997 169.33 0.699997C170.697 0.699997 172.047 0.766664 173.38 0.899998C174.747 1.03333 176.047 1.2 177.28 1.4C178.547 1.56666 179.63 1.75 180.53 1.95V7.8C178.997 7.7 177.28 7.6 175.38 7.5C173.513 7.4 171.78 7.35 170.18 7.35C169.047 7.35 168.03 7.46667 167.13 7.7C166.263 7.9 165.597 8.3 165.13 8.9C164.663 9.5 164.43 10.35 164.43 11.45V12.45C164.43 13.75 164.797 14.6833 165.53 15.25C166.263 15.8167 167.347 16.1 168.78 16.1H172.43C174.663 16.1 176.497 16.5167 177.93 17.35C179.397 18.15 180.48 19.2667 181.18 20.7C181.913 22.1333 182.28 23.7667 182.28 25.6V27.7C182.28 30.6 181.73 32.8167 180.63 34.35C179.563 35.8833 178.063 36.9333 176.13 37.5C174.23 38.0333 171.997 38.3 169.43 38.3Z" fill="white"/>
</svg>
